<?xml version="1.0" standalone="no"?>
<!DOCTYPE svg PUBLIC "-//W3C//DTD SVG 20010904//EN"
 "http://www.w3.org/TR/2001/REC-SVG-20010904/DTD/svg10.dtd">
<svg version="1.0" xmlns="http://www.w3.org/2000/svg"
 width="243.000000pt" height="243.000000pt" viewBox="0 0 243.000000 243.000000"
 preserveAspectRatio="xMidYMid meet">

<g transform="translate(0.000000,243.000000) scale(0.100000,-0.100000)"
fill="#000000" stroke="none">
<path d="M600 2420 c0 -6 -131 -184 -290 -395 -160 -212 -293 -391 -296 -399
-3 -7 175 -373 395 -813 l399 -800 279 -5 c153 -3 336 -3 406 1 l129 6 159
305 c87 168 267 528 400 800 221 455 240 497 228 517 -8 12 -134 181 -281 376
-147 195 -276 369 -285 386 -10 17 -23 31 -29 31 -7 0 -28 -44 -47 -99 -33
-90 -157 -484 -157 -496 0 -3 -177 -5 -392 -5 l-393 0 -69 203 c-37 111 -82
246 -99 300 -18 57 -36 97 -44 97 -7 0 -13 -5 -13 -10z m40 -146 c16 -54 59
-183 96 -285 l67 -186 252 -8 c138 -3 324 -3 413 1 l161 7 94 284 c52 156 97
285 100 286 8 3 569 -743 574 -763 6 -23 -665 -1382 -767 -1552 l-22 -38 -394
0 -394 0 -395 790 c-217 434 -395 794 -395 799 0 5 59 87 131 182 72 96 201
267 287 381 86 114 157 206 159 205 2 -2 16 -48 33 -103z"/>
<path d="M710 1325 l-105 -105 208 0 c114 0 207 1 207 3 0 1 -46 48 -103 105
l-102 102 -105 -105z m199 -6 l85 -89 -177 1 -177 1 81 89 c45 49 86 88 93 88
6 -1 49 -42 95 -90z"/>
<path d="M1510 1325 l-105 -105 208 0 c114 0 207 1 207 3 0 1 -46 48 -103 105
l-102 102 -105 -105z m199 -5 l82 -90 -179 0 -180 0 86 88 c48 49 92 89 98 90
6 1 48 -38 93 -88z"/>
<path d="M1021 768 c6 -12 53 -64 103 -116 l91 -94 93 98 c52 55 98 107 103
117 9 16 -3 17 -196 17 l-206 0 12 -22z m344 -28 c-21 -22 -35 -40 -30 -40 6
0 -19 -27 -54 -61 -36 -33 -70 -58 -76 -55 -13 5 -175 182 -175 191 0 3 84 5
187 5 l187 0 -39 -40z"/>
<path d="M1294 668 l-29 -33 33 29 c30 28 37 36 29 36 -2 0 -16 -15 -33 -32z"/>
</g>
</svg>
