<?xml version="1.0" standalone="no"?>
<!DOCTYPE svg PUBLIC "-//W3C//DTD SVG 20010904//EN"
 "http://www.w3.org/TR/2001/REC-SVG-20010904/DTD/svg10.dtd">
<svg version="1.0" xmlns="http://www.w3.org/2000/svg"
 width="242.000000pt" height="242.000000pt" viewBox="0 0 242.000000 242.000000"
 preserveAspectRatio="xMidYMid meet">

<g transform="translate(0.000000,242.000000) scale(0.100000,-0.100000)"
fill="#000000" stroke="none">
<path d="M395 2408 c-199 -563 -324 -935 -380 -1135 l-17 -60 193 -234 c264
-320 626 -754 727 -872 l83 -97 204 0 204 0 134 158 c73 86 279 333 457 547
178 215 343 414 367 443 25 28 40 52 35 52 -5 0 -94 -102 -198 -227 -104 -126
-261 -313 -349 -418 -88 -104 -225 -269 -306 -365 l-146 -175 -199 0 -199 1
-193 229 c-107 127 -282 338 -390 470 -108 132 -244 296 -303 365 l-106 126
48 139 c26 77 113 338 194 580 80 242 148 447 151 454 3 10 70 -50 202 -182
l197 -197 405 0 405 0 190 190 c104 105 193 190 196 190 5 0 92 -258 145 -432
10 -31 21 -55 25 -53 4 3 5 -5 1 -17 -3 -14 -1 -19 6 -14 8 4 10 2 6 -7 -6
-18 77 -284 154 -492 57 -156 59 -161 66 -154 9 9 -69 230 -78 222 -5 -5 -6
-3 -2 5 10 18 -175 592 -310 961 -3 10 -71 -51 -207 -187 l-202 -202 -395 0
-395 0 -200 200 c-110 110 -203 200 -208 200 -4 0 -10 -6 -12 -12z m-226 -707
c-28 -84 -53 -150 -55 -148 -2 2 19 72 47 156 28 84 53 150 55 148 2 -2 -19
-72 -47 -156z m2119 -141 c0 -8 -6 1 -13 20 -7 19 -13 42 -13 50 0 8 6 -1 13
-20 7 -19 13 -42 13 -50z"/>
<path d="M700 1421 c-58 -54 -102 -102 -99 -105 3 -4 97 -5 208 -4 l201 3
-102 102 -103 102 -105 -98z m0 -25 c0 -2 -8 -10 -17 -17 -16 -13 -17 -12 -4
4 13 16 21 21 21 13z m-40 -40 c0 -2 -8 -10 -17 -17 -16 -13 -17 -12 -4 4 13
16 21 21 21 13z m148 -23 c-21 -2 -57 -2 -80 0 -24 2 -7 4 37 4 44 0 63 -2 43
-4z m165 -10 c-7 -2 -19 -2 -25 0 -7 3 -2 5 12 5 14 0 19 -2 13 -5z"/>
<path d="M1500 1415 l-105 -105 208 0 c114 0 207 1 207 3 0 1 -46 48 -103 105
l-102 102 -105 -105z m-14 -44 c-38 -39 -38 -39 -15 -44 18 -3 15 -5 -11 -6
l-34 -1 44 45 c24 25 46 45 49 45 3 0 -12 -18 -33 -39z m182 -48 c-21 -2 -55
-2 -75 0 -21 2 -4 4 37 4 41 0 58 -2 38 -4z"/>
<path d="M1000 912 c0 -8 198 -242 205 -242 2 0 42 46 89 103 46 57 92 109
100 116 9 8 16 17 16 22 0 5 -92 9 -205 9 -113 0 -205 -3 -205 -8z m118 -9
c-10 -2 -28 -2 -40 0 -13 2 -5 4 17 4 22 1 32 -1 23 -4z m262 -8 c-14 -17 -25
-20 -15 -5 3 6 -38 11 -107 13 l-113 3 124 2 c109 2 122 0 111 -13z m-309 -42
c13 -16 12 -17 -3 -4 -10 7 -18 15 -18 17 0 8 8 3 21 -13z m249 -27 c0 -2 -8
-10 -17 -17 -16 -13 -17 -12 -4 4 13 16 21 21 21 13z"/>
</g>
</svg>
