<?xml version="1.0" standalone="no"?>
<!DOCTYPE svg PUBLIC "-//W3C//DTD SVG 20010904//EN"
 "http://www.w3.org/TR/2001/REC-SVG-20010904/DTD/svg10.dtd">
<svg version="1.0" xmlns="http://www.w3.org/2000/svg"
 width="241.000000pt" height="231.000000pt" viewBox="0 0 241.000000 231.000000"
 preserveAspectRatio="xMidYMid meet">

<g transform="translate(0.000000,231.000000) scale(0.100000,-0.100000)"
fill="#000000" stroke="none">
<path d="M575 2078 c-2 -7 -26 -76 -53 -153 -91 -254 -143 -408 -197 -585 -45
-144 -52 -177 -42 -191 12 -18 254 -310 413 -501 49 -58 145 -174 214 -257
l125 -150 166 -1 c153 0 168 2 180 19 8 11 113 138 234 283 435 519 510 611
509 627 -3 47 -285 895 -304 914 -4 5 -77 -60 -161 -144 l-154 -153 -305 2
-304 1 -151 151 c-83 82 -154 150 -158 150 -4 0 -9 -6 -12 -12z m630 -308
l310 0 150 150 150 150 56 -178 c32 -97 80 -250 109 -339 28 -90 69 -211 91
-270 22 -59 38 -113 37 -120 -3 -12 -240 -299 -550 -665 -92 -109 -175 -209
-184 -223 -16 -25 -17 -25 -168 -25 l-152 0 -31 32 c-38 41 -548 654 -717 863
-18 23 -18 24 19 132 66 190 151 443 204 608 29 88 54 167 57 174 3 10 56 -36
157 -137 l152 -152 310 0z"/>
<path d="M810 1325 c-61 -61 -72 -77 -60 -85 17 -11 283 -14 294 -3 6 6 -142
163 -154 163 -3 0 -39 -34 -80 -75z"/>
<path d="M1427 1322 l-78 -79 152 -6 c84 -4 156 -4 161 -1 8 5 -139 164 -152
164 -3 0 -41 -35 -83 -78z"/>
<path d="M1040 932 c0 -4 36 -49 80 -100 l80 -92 33 38 c67 77 127 150 127
156 0 3 -72 6 -160 6 -88 0 -160 -4 -160 -8z m93 -9 c-7 -2 -21 -2 -30 0 -10
3 -4 5 12 5 17 0 24 -2 18 -5z m60 0 c-7 -2 -19 -2 -25 0 -7 3 -2 5 12 5 14 0
19 -2 13 -5z m144 1 c-3 -3 -12 -4 -19 -1 -8 3 -5 6 6 6 11 1 17 -2 13 -5z"/>
</g>
</svg>
